<?xml version="1.0" encoding="UTF-8" standalone="no"?>
<!-- Created with Inkscape (http://www.inkscape.org/) -->

<svg
   width="11.905889mm"
   height="11.450005mm"
   viewBox="0 0 11.905889 11.450005"
   version="1.1"
   id="svg5"
   inkscape:version="1.1.2 (b8e25be833, 2022-02-05)"
   sodipodi:docname="ddb-logo.svg"
   xmlns:inkscape="http://www.inkscape.org/namespaces/inkscape"
   xmlns:sodipodi="http://sodipodi.sourceforge.net/DTD/sodipodi-0.dtd"
   xmlns:xlink="http://www.w3.org/1999/xlink"
   xmlns="http://www.w3.org/2000/svg"
   xmlns:svg="http://www.w3.org/2000/svg">
  <sodipodi:namedview
     id="namedview7"
     pagecolor="#000000"
     bordercolor="#666666"
     borderopacity="1.0"
     inkscape:pageshadow="2"
     inkscape:pageopacity="1"
     inkscape:pagecheckerboard="0"
     inkscape:document-units="mm"
     showgrid="false"
     units="mm"
     fit-margin-top="0"
     fit-margin-left="0"
     fit-margin-right="0"
     fit-margin-bottom="0"
     inkscape:zoom="1.4805976"
     inkscape:cx="101.64814"
     inkscape:cy="69.566503"
     inkscape:window-width="1920"
     inkscape:window-height="1017"
     inkscape:window-x="-8"
     inkscape:window-y="-8"
     inkscape:window-maximized="1"
     inkscape:current-layer="layer1" />
  <defs
     id="defs2">
    <path
       id="SVGID_1_"
       d="M 18.306,15.171 C 16.458,15.425 7.689,12.901 5.207,9.601 4.795,10.763 3.738,9.818 4.906,12.423 c 4.564,10.198 21.866,11.965 22.592,6.274 -1.182,9.275 -2.084,13.145 -5.648,20.017 -0.197,-0.01 -0.635,-0.01 -0.938,0.063 -2.866,0.693 -4.148,4.716 -4.226,7.103 -0.005,0.15 -0.035,0.469 0.063,0.548 0.118,0.094 0.373,-0.071 0.469,-0.115 7.89,-3.678 7.707,-17.979 11.936,-25.9 0.746,-1.396 -2.413,-3.544 0.06,-4.22 -0.223,3.546 3.141,3.595 3.265,6.806 -0.671,0.158 -1.5,-0.307 -2.131,-0.772 -0.917,-0.675 -1.412,-1.352 -0.376,-0.11 1.448,3.348 6.983,2.5 9.33,1.654 1.672,-0.604 1.726,-1.207 -2.472,-0.292 -1.76,-2.169 -5.832,-1.812 -5.961,-5.571 2.211,1.925 9.295,0.536 14.038,1.802 -2.574,0.007 -3.55,0.528 -5.892,1.484 9.496,3.19 4.915,-1.293 10.357,-4.676 -2.007,-1.082 -4.284,-0.345 -6.472,0.391 -2.277,0.767 -4.458,1.534 -6.138,0.25 5.394,-0.989 13.236,-3.973 11.888,-9.095 -1.954,3.207 -5.729,4.829 -7.617,4.098 1.031,-3.236 7.517,-5.313 5.998,-8.346 -1.543,4.695 -9.4,7.376 -11.05,9.109 0.843,0.327 1.642,-0.172 2.323,-0.67 0.89,-0.653 1.576,-1.305 1.889,-0.107 -2.394,3.172 -8.728,0.862 -1.727,3.35 -0.649,-0.198 -1.586,-0.115 -2.522,-0.031 -1.569,0.138 -3.137,0.278 -3.345,-0.908 1.889,-3.483 9.028,-6.041 7.702,-10.006 -2.432,5.231 -5.146,4.906 -9.36,8.291 0.211,-2.016 -0.543,-1.867 -1.472,-1.719 -0.976,0.157 -2.145,0.312 -2.587,-2.049 -0.03,-0.162 -0.13,-0.109 -0.136,0.056 -0.207,4.635 -1.005,2.907 -1.656,1.181 -0.351,-0.931 -0.659,-1.862 -0.807,-1.796 -0.115,0.049 0.052,4.31 -0.913,5.051 -1.893,1.455 -6.918,-0.945 -7.511,-3.498 -3.275,0.266 -5.213,-1.455 -5.807,-5.158 0,0 -0.923,-1.708 -2.496,-1.73 -4.742,7.351 8.298,10.532 10.75,11.989" />
    <path
       id="SVGID_4_"
       d="M 18.306,15.172 C 16.458,15.425 7.689,12.901 5.207,9.602 4.795,10.764 3.738,9.819 4.906,12.424 9.47,22.621 26.772,24.39 27.499,18.698 c -1.182,9.275 -2.084,13.146 -5.648,20.017 -0.197,-0.009 -0.635,-0.01 -0.938,0.063 -2.866,0.693 -4.148,4.716 -4.226,7.104 -0.005,0.149 -0.035,0.469 0.063,0.547 0.118,0.094 0.373,-0.07 0.469,-0.115 7.89,-3.677 7.707,-17.979 11.936,-25.9 0.746,-1.395 -2.413,-3.543 0.06,-4.22 -0.223,3.547 3.141,3.595 3.265,6.806 -0.671,0.158 -1.501,-0.307 -2.131,-0.772 -0.917,-0.675 -1.412,-1.351 -0.376,-0.11 1.448,3.348 6.983,2.502 9.33,1.654 1.673,-0.604 1.726,-1.206 -2.472,-0.292 -1.76,-2.168 -5.832,-1.812 -5.961,-5.571 2.211,1.925 9.295,0.536 14.038,1.802 -2.574,0.008 -3.55,0.528 -5.892,1.484 9.496,3.19 4.915,-1.292 10.357,-4.676 -2.007,-1.081 -4.284,-0.345 -6.472,0.392 -2.277,0.767 -4.458,1.534 -6.138,0.25 5.394,-0.989 13.236,-3.973 11.888,-9.095 -1.954,3.206 -5.729,4.828 -7.617,4.098 1.031,-3.236 7.517,-5.314 5.998,-8.346 -1.543,4.695 -9.4,7.376 -11.05,9.108 0.843,0.327 1.642,-0.171 2.323,-0.67 0.89,-0.652 1.576,-1.304 1.889,-0.106 -2.394,3.171 -8.728,0.862 -1.727,3.349 -0.648,-0.198 -1.585,-0.114 -2.521,-0.031 -1.569,0.139 -3.138,0.28 -3.346,-0.907 1.889,-3.483 9.028,-6.042 7.702,-10.006 -2.432,5.23 -5.146,4.906 -9.36,8.291 0.211,-2.016 -0.543,-1.868 -1.472,-1.719 -0.976,0.156 -2.145,0.312 -2.587,-2.05 -0.03,-0.161 -0.13,-0.109 -0.136,0.057 -0.207,4.634 -1.005,2.907 -1.656,1.181 -0.351,-0.931 -0.659,-1.863 -0.807,-1.796 -0.115,0.049 0.052,4.309 -0.913,5.051 -1.893,1.454 -6.918,-0.946 -7.511,-3.498 -3.275,0.265 -5.213,-1.455 -5.807,-5.159 0,0 -0.923,-1.707 -2.496,-1.73 -4.743,7.351 8.297,10.532 10.749,11.989" />
  </defs>
  <g
     inkscape:label="Ebene 1"
     inkscape:groupmode="layer"
     id="layer1">
    <g
       id="schwarz"
       display="none"
       transform="matrix(0.26458333,0,0,0.26458333,-1.1880752,-0.84137499)">
	<g
   display="inline"
   id="g254">
		<path
   d="m 55.503,24.404 c -1.619,0 -2.687,-0.876 -2.687,-2.436 v -6.236 h 1.067 v 6.104 c 0,1.067 0.624,1.679 1.619,1.679 1.019,0 1.667,-0.6 1.667,-1.655 v -6.128 h 1.055 v 6.081 c 0.001,1.607 -1.066,2.591 -2.721,2.591 z"
   id="path216" />

		<path
   d="m 64.85,24.38 c -0.815,0 -1.271,-0.601 -1.271,-1.655 V 19.87 c 0,-0.647 -0.312,-1.08 -0.887,-1.08 -0.612,0 -1.151,0.492 -1.523,1.092 v 4.401 H 60.15 v -6.152 l 0.875,-0.132 0.144,1.067 c 0.348,-0.6 0.84,-1.079 1.619,-1.079 1.056,0 1.811,0.671 1.811,1.835 v 2.891 c 0,0.467 0.072,0.875 0.468,0.875 0.204,0 0.384,-0.084 0.54,-0.168 l 0.3,0.695 c -0.266,0.168 -0.626,0.265 -1.057,0.265 z"
   id="path218" />

		<path
   d="m 68.463,24.367 c -0.936,0 -1.391,-0.635 -1.391,-1.631 V 18.839 H 66.16 v -0.756 h 0.923 l 0.36,-2.015 h 0.636 v 2.015 h 1.607 v 0.756 h -1.595 v 3.657 c 0,0.564 0.06,1.057 0.492,1.057 0.288,0 0.576,-0.181 0.864,-0.396 l 0.479,0.672 c -0.348,0.335 -0.9,0.538 -1.463,0.538 z"
   id="path220" />

		<path
   d="m 71.775,21.729 c 0.036,0.948 0.384,1.847 1.235,1.847 0.612,0 1.14,-0.229 1.595,-0.504 l 0.456,0.779 c -0.54,0.324 -1.259,0.516 -2.039,0.516 -1.667,0 -2.375,-1.427 -2.375,-3.262 0,-1.787 0.852,-3.106 2.375,-3.106 1.199,0 2.111,0.744 2.111,1.859 0.001,1.523 -1.834,1.787 -3.358,1.871 z m 1.248,-2.95 c -0.948,0 -1.224,1.115 -1.259,2.23 0.983,-0.108 2.291,-0.204 2.291,-1.151 -0.001,-0.624 -0.421,-1.079 -1.032,-1.079 z"
   id="path222" />

		<path
   d="m 79.778,19.066 c -0.096,-0.024 -0.204,-0.06 -0.324,-0.06 -0.648,0 -1.164,0.443 -1.523,1.031 v 4.245 h -0.995 v -6.236 l 0.779,-0.083 0.204,1.175 c 0.36,-0.612 0.887,-1.151 1.535,-1.151 0.251,0 0.492,0.036 0.708,0.096 z"
   id="path224" />

		<path
   d="m 82.311,24.392 c -0.732,0 -1.451,-0.228 -2.027,-0.684 l 0.468,-0.731 c 0.479,0.371 1.031,0.6 1.643,0.6 0.587,0 1.019,-0.24 1.019,-0.875 0,-0.612 -0.6,-0.84 -1.235,-1.128 -0.744,-0.336 -1.715,-0.768 -1.715,-1.955 0,-1.104 1.08,-1.631 1.991,-1.631 0.684,0 1.331,0.228 1.919,0.563 l -0.396,0.696 c -0.456,-0.252 -0.923,-0.468 -1.451,-0.468 -0.552,0 -0.959,0.288 -0.959,0.852 0,0.624 0.72,0.863 1.295,1.139 0.768,0.372 1.655,0.78 1.655,1.859 0,1.211 -1.14,1.763 -2.207,1.763 z"
   id="path226" />

		<path
   d="m 87.531,24.367 c -0.936,0 -1.391,-0.635 -1.391,-1.631 v -3.897 h -0.912 v -0.756 h 0.923 l 0.36,-2.015 h 0.636 v 2.015 h 1.607 v 0.756 h -1.595 v 3.657 c 0,0.564 0.06,1.057 0.492,1.057 0.288,0 0.576,-0.181 0.864,-0.396 l 0.479,0.672 c -0.348,0.335 -0.9,0.538 -1.463,0.538 z"
   id="path228" />

		<path
   d="m 94.501,24.38 c -0.528,0 -0.959,-0.252 -1.164,-0.876 -0.228,0.336 -0.779,0.888 -1.619,0.888 -1.14,0 -1.811,-0.72 -1.811,-1.883 v -4.426 h 1.019 v 4.426 c 0,0.72 0.396,1.056 0.912,1.056 0.624,0 1.188,-0.553 1.391,-0.972 v -4.51 h 1.02 v 4.63 c 0,0.479 0.072,0.875 0.468,0.875 0.228,0 0.396,-0.084 0.54,-0.168 l 0.3,0.695 c -0.241,0.156 -0.648,0.265 -1.056,0.265 z m -3.67,-7.892 c -0.42,0 -0.756,-0.335 -0.756,-0.755 0,-0.42 0.336,-0.756 0.756,-0.756 0.42,0 0.755,0.336 0.755,0.756 0,0.42 -0.335,0.755 -0.755,0.755 z m 2.506,0 c -0.419,0 -0.755,-0.335 -0.755,-0.755 0,-0.42 0.336,-0.756 0.755,-0.756 0.42,0 0.756,0.336 0.756,0.756 0,0.42 -0.336,0.755 -0.756,0.755 z"
   id="path230" />

		<path
   d="m 97.995,24.367 c -0.936,0 -1.391,-0.635 -1.391,-1.631 v -3.897 h -0.912 v -0.756 h 0.923 l 0.36,-2.015 h 0.636 v 2.015 h 1.607 v 0.756 h -1.595 v 3.657 c 0,0.564 0.06,1.057 0.492,1.057 0.288,0 0.576,-0.181 0.864,-0.396 l 0.479,0.672 c -0.348,0.335 -0.899,0.538 -1.463,0.538 z"
   id="path232" />

		<path
   d="m 100.12,24.283 c 0,-1.799 0.516,-2.326 1.655,-3.441 0.672,-0.648 1.379,-1.067 1.379,-1.895 h -2.902 v -0.864 h 3.838 c 0,1.559 -0.204,2.039 -1.451,3.238 -0.708,0.684 -1.56,1.235 -1.56,2.11 h 3.07 v 0.852 z"
   id="path234" />

		<path
   d="m 107.283,24.367 c -0.936,0 -1.391,-0.635 -1.391,-1.631 v -3.897 h -0.912 v -0.756 h 0.923 l 0.36,-2.015 h 0.636 v 2.015 h 1.607 v 0.756 h -1.595 v 3.657 c 0,0.564 0.06,1.057 0.492,1.057 0.288,0 0.576,-0.181 0.864,-0.396 l 0.479,0.672 c -0.348,0.335 -0.9,0.538 -1.463,0.538 z"
   id="path236" />

		<path
   d="m 117.722,24.38 c -0.601,0 -0.972,-0.312 -1.151,-0.827 -0.168,0.275 -0.588,0.863 -1.416,0.863 -1.559,0 -2.183,-1.416 -2.183,-3.179 0,-1.703 0.756,-3.214 2.231,-3.214 0.575,0 0.959,0.264 1.259,0.564 v -3.334 h 1.008 v 7.46 c 0,0.479 0.06,0.875 0.479,0.875 0.216,0 0.384,-0.084 0.527,-0.168 l 0.3,0.695 c -0.263,0.168 -0.659,0.265 -1.054,0.265 z m -1.26,-4.774 c -0.192,-0.42 -0.611,-0.768 -1.188,-0.768 -0.923,0 -1.199,1.175 -1.199,2.387 0,1.211 0.276,2.387 1.199,2.387 0.576,0 1.056,-0.636 1.188,-0.96 z"
   id="path238" />

		<path
   d="m 124.213,24.38 c -0.527,0 -0.959,-0.252 -1.163,-0.876 -0.229,0.336 -0.78,0.888 -1.619,0.888 -1.14,0 -1.812,-0.72 -1.812,-1.883 v -4.426 h 1.02 v 4.426 c 0,0.72 0.396,1.056 0.912,1.056 0.623,0 1.187,-0.553 1.391,-0.972 v -4.51 h 1.02 v 4.63 c 0,0.479 0.072,0.875 0.468,0.875 0.228,0 0.396,-0.084 0.54,-0.168 l 0.3,0.695 c -0.242,0.156 -0.649,0.265 -1.057,0.265 z"
   id="path240" />

		<path
   d="m 128.966,19.066 c -0.096,-0.024 -0.204,-0.06 -0.324,-0.06 -0.647,0 -1.163,0.443 -1.522,1.031 v 4.245 h -0.996 v -6.236 l 0.78,-0.083 0.203,1.175 c 0.36,-0.612 0.888,-1.151 1.535,-1.151 0.252,0 0.492,0.036 0.708,0.096 z"
   id="path242" />

		<path
   d="m 132.985,19.342 c -0.191,-0.324 -0.552,-0.54 -1.019,-0.54 -0.9,0 -1.151,1.199 -1.151,2.411 0,1.248 0.239,2.386 1.151,2.386 0.479,0 0.863,-0.228 1.151,-0.551 l 0.611,0.611 c -0.396,0.408 -0.983,0.731 -1.763,0.731 -1.56,0 -2.255,-1.308 -2.255,-3.178 0,-1.943 0.779,-3.214 2.255,-3.214 0.779,0 1.451,0.336 1.786,0.899 z"
   id="path244" />

		<path
   d="m 139.681,24.38 c -0.863,0 -1.271,-0.672 -1.271,-1.655 v -2.867 c 0,-0.731 -0.396,-1.067 -0.888,-1.067 -0.612,0 -1.164,0.516 -1.571,1.092 v 4.401 h -1.008 v -9.031 h 1.008 v 3.838 c 0.396,-0.635 0.947,-1.103 1.667,-1.103 1.104,0 1.811,0.695 1.811,1.835 v 2.891 c 0,0.455 0.061,0.875 0.468,0.875 0.181,0 0.349,-0.06 0.54,-0.168 l 0.3,0.695 c -0.276,0.167 -0.684,0.264 -1.056,0.264 z"
   id="path246" />

		<path
   d="m 149.772,24.38 c -0.6,0 -0.972,-0.312 -1.151,-0.827 -0.168,0.275 -0.588,0.863 -1.415,0.863 -1.56,0 -2.183,-1.416 -2.183,-3.179 0,-1.703 0.755,-3.214 2.23,-3.214 0.575,0 0.959,0.264 1.26,0.564 v -3.334 h 1.007 v 7.46 c 0,0.479 0.061,0.875 0.479,0.875 0.216,0 0.384,-0.084 0.528,-0.168 l 0.3,0.695 c -0.263,0.168 -0.659,0.265 -1.055,0.265 z m -1.258,-4.774 c -0.192,-0.42 -0.612,-0.768 -1.188,-0.768 -0.924,0 -1.199,1.175 -1.199,2.387 0,1.211 0.275,2.387 1.199,2.387 0.575,0 1.055,-0.636 1.188,-0.96 z"
   id="path248" />

		<path
   d="m 152.14,24.283 v -5.444 h -1.176 v -0.684 l 2.207,-0.144 v 6.272 z m 0.479,-7.795 c -0.42,0 -0.755,-0.335 -0.755,-0.755 0,-0.42 0.335,-0.756 0.755,-0.756 0.42,0 0.756,0.336 0.756,0.756 0,0.42 -0.336,0.755 -0.756,0.755 z"
   id="path250" />

		<path
   d="m 156.183,21.729 c 0.036,0.948 0.384,1.847 1.235,1.847 0.611,0 1.14,-0.229 1.595,-0.504 l 0.456,0.779 c -0.539,0.324 -1.259,0.516 -2.039,0.516 -1.667,0 -2.374,-1.427 -2.374,-3.262 0,-1.787 0.852,-3.106 2.374,-3.106 1.199,0 2.111,0.744 2.111,1.859 0,1.523 -1.835,1.787 -3.358,1.871 z m 1.247,-2.95 c -0.947,0 -1.223,1.115 -1.259,2.23 0.983,-0.108 2.291,-0.204 2.291,-1.151 0,-0.624 -0.42,-1.079 -1.032,-1.079 z"
   id="path252" />

	</g>

	<g
   display="inline"
   id="g260">
		<path
   d="m 54.436,38.684 h -1.619 v -8.552 h 1.619 c 2.782,0 4.125,1.812 4.125,4.318 0,2.374 -1.475,4.234 -4.125,4.234 z m 0,-7.688 h -0.552 v 6.788 h 0.552 c 1.955,0 2.974,-1.476 2.974,-3.334 0,-1.967 -1.02,-3.454 -2.974,-3.454 z"
   id="path256" />

		<path
   d="m 64.538,31.02 h -3.274 v 2.675 h 2.71 l -0.144,0.899 h -2.566 v 3.166 h 3.442 l -0.132,0.924 H 60.233 V 30.12 l 4.485,0.012 z"
   id="path258" />

	</g>

	<g
   display="inline"
   id="g264">
		<path
   d="m 69.075,38.804 c -1.619,0 -2.687,-0.876 -2.687,-2.435 v -6.237 h 1.067 v 6.105 c 0,1.067 0.624,1.679 1.619,1.679 1.019,0 1.667,-0.6 1.667,-1.655 v -6.129 h 1.055 v 6.081 c 10e-4,1.607 -1.067,2.591 -2.721,2.591 z"
   id="path262" />

	</g>

	<g
   display="inline"
   id="g296">
		<path
   d="m 78.686,31.056 h -2.315 v 7.628 h -1.079 v -7.628 h -2.303 v -0.924 h 5.781 z"
   id="path266" />

		<path
   d="m 84.242,31.703 c -0.563,-0.443 -1.199,-0.791 -1.895,-0.791 -0.731,0 -1.355,0.396 -1.355,1.199 0,0.863 0.779,1.283 1.499,1.739 1.127,0.707 2.219,1.235 2.219,2.698 0,1.379 -1.091,2.303 -2.542,2.303 -1.248,0 -2.039,-0.492 -2.687,-1.02 l 0.647,-0.84 c 0.516,0.432 1.175,0.972 2.099,0.972 0.78,0 1.355,-0.527 1.355,-1.283 0,-1.008 -0.923,-1.427 -1.823,-1.967 -0.924,-0.563 -1.895,-1.199 -1.895,-2.53 0,-1.392 1.211,-2.184 2.411,-2.184 1.02,0 1.907,0.396 2.579,0.924 z"
   id="path268" />

		<path
   d="m 91.262,31.812 c -0.384,-0.54 -0.924,-0.899 -1.691,-0.899 -1.415,0 -1.979,1.715 -1.979,3.598 0,1.847 0.564,3.454 2.027,3.454 0.78,0 1.235,-0.348 1.667,-0.707 l 0.708,0.707 c -0.516,0.492 -1.332,0.888 -2.375,0.888 -2.278,0 -3.202,-1.859 -3.202,-4.342 0,-2.614 1.127,-4.485 3.202,-4.485 1.116,0 1.931,0.504 2.471,1.188 z"
   id="path270" />

		<path
   d="m 98.257,38.684 v -4.078 h -3.802 v 4.078 H 93.4 V 30.12 h 1.067 v 3.622 h 3.79 V 30.12 H 99.3 v 8.563 h -1.043 z"
   id="path272" />

		<path
   d="m 105.77,31.02 h -3.274 v 2.675 h 2.71 l -0.144,0.899 h -2.566 v 3.166 h 3.442 l -0.132,0.924 h -4.341 V 30.12 l 4.485,0.012 z"
   id="path274" />

		<path
   d="m 112.911,38.684 h -1.619 v -8.552 h 1.619 c 2.782,0 4.126,1.812 4.126,4.318 0,2.374 -1.475,4.234 -4.126,4.234 z m 0,-7.688 h -0.552 v 6.788 h 0.552 c 1.954,0 2.974,-1.476 2.974,-3.334 0,-1.967 -1.02,-3.454 -2.974,-3.454 z"
   id="path276" />

		<path
   d="m 118.707,38.684 v -8.552 h 1.044 v 8.552 z"
   id="path278" />

		<path
   d="m 126.793,31.703 c -0.504,-0.504 -1.14,-0.839 -1.919,-0.839 -1.476,0 -2.027,1.619 -2.027,3.466 0,1.883 0.492,3.622 2.003,3.622 0.552,0 1.08,-0.061 1.512,-0.192 v -3.154 h -1.632 l 0.145,-0.839 h 2.494 v 4.401 c -0.611,0.384 -1.535,0.647 -2.519,0.647 -2.267,0 -3.178,-1.955 -3.178,-4.485 0,-2.519 1.127,-4.33 3.202,-4.33 1.139,0 1.99,0.408 2.639,1.067 z"
   id="path280" />

		<path
   d="m 129.495,38.684 v -8.552 h 1.044 v 8.552 z"
   id="path282" />

		<path
   d="m 137.437,31.056 h -2.314 v 7.628 h -1.079 v -7.628 h -2.303 v -0.924 h 5.78 z"
   id="path284" />

		<path
   d="m 143.4,38.684 -0.636,-2.362 h -3.166 l -0.696,2.362 h -1.139 l 2.771,-8.552 h 1.535 l 2.446,8.552 z m -1.991,-7.748 h -0.216 l -1.331,4.534 h 2.698 z"
   id="path286" />

		<path
   d="m 150.049,38.684 h -4.21 v -8.552 h 1.031 v 7.664 h 3.263 z"
   id="path288" />

		<path
   d="m 155.641,31.02 h -3.274 v 2.675 h 2.711 l -0.144,0.899 h -2.567 v 3.166 h 3.442 l -0.132,0.924 h -4.342 V 30.12 l 4.485,0.012 z"
   id="path290" />

		<path
   d="m 163.394,38.684 c 0,0 -1.535,0 -2.231,0 v -8.552 h 2.063 c 1.679,0 2.806,0.756 2.806,2.1 0,0.888 -0.563,1.499 -1.307,1.822 0.911,0.336 1.511,1.104 1.511,2.147 -10e-4,1.511 -1.152,2.483 -2.842,2.483 z m -0.168,-7.736 h -1.044 v 2.746 h 1.115 c 1.02,0 1.632,-0.552 1.632,-1.379 0,-0.935 -0.697,-1.367 -1.703,-1.367 z m 0.059,3.538 h -1.104 v 3.357 h 1.212 c 1.139,0 1.715,-0.671 1.715,-1.643 0,-0.995 -0.731,-1.714 -1.823,-1.714 z"
   id="path292" />

		<path
   d="m 167.798,38.684 v -8.552 h 1.044 v 8.552 z"
   id="path294" />

	</g>

	<g
   display="inline"
   id="g300">
		<path
   d="m 173.091,38.684 c 0,0 -1.535,0 -2.231,0 v -8.552 h 2.063 c 1.679,0 2.806,0.756 2.806,2.1 0,0.888 -0.563,1.499 -1.307,1.822 0.911,0.336 1.511,1.104 1.511,2.147 0,1.511 -1.152,2.483 -2.842,2.483 z m -0.168,-7.736 h -1.044 v 2.746 h 1.115 c 1.02,0 1.632,-0.552 1.632,-1.379 0,-0.935 -0.696,-1.367 -1.703,-1.367 z m 0.059,3.538 h -1.104 v 3.357 h 1.212 c 1.139,0 1.715,-0.671 1.715,-1.643 0.001,-0.995 -0.731,-1.714 -1.823,-1.714 z"
   id="path298" />

	</g>

	<g
   display="inline"
   id="g316">
		<path
   d="m 181.693,38.684 h -4.21 v -8.552 h 1.031 v 7.664 h 3.263 z"
   id="path302" />

		<path
   d="m 182.979,38.684 v -8.552 h 1.044 v 8.552 z"
   id="path304" />

		<path
   d="m 189.182,38.815 c -2.231,0 -3.238,-1.775 -3.238,-4.413 0,-2.519 1.031,-4.414 3.238,-4.414 2.242,0 3.226,1.979 3.226,4.401 -10e-4,2.46 -1.02,4.426 -3.226,4.426 z m 0,-8.023 c -1.464,0 -2.063,1.691 -2.063,3.61 0,2.038 0.576,3.622 2.063,3.622 1.511,0 2.051,-1.655 2.051,-3.622 -0.001,-1.919 -0.661,-3.61 -2.051,-3.61 z"
   id="path306" />

		<path
   d="m 199.068,31.056 h -2.314 v 7.628 h -1.079 v -7.628 h -2.303 v -0.924 h 5.78 z"
   id="path308" />

		<path
   d="m 205.08,38.684 v -4.078 h -3.802 v 4.078 h -1.056 V 30.12 h 1.067 v 3.622 h 3.79 V 30.12 h 1.044 v 8.563 h -1.043 z"
   id="path310" />

		<path
   d="m 212.593,31.02 h -3.274 v 2.675 h 2.711 l -0.144,0.899 h -2.567 v 3.166 h 3.442 l -0.132,0.924 h -4.342 V 30.12 l 4.485,0.012 z"
   id="path312" />

		<path
   d="m 218.953,38.684 -2.531,-3.994 h -0.887 v 3.994 h -1.08 v -8.552 h 1.067 v 3.622 h 0.864 l 2.614,-3.705 0.888,0.551 -2.65,3.563 3.034,4.521 z"
   id="path314" />

	</g>

	<path
   display="inline"
   d="m 7.556,3.181 c 1.574,0.023 2.496,1.729 2.496,1.729 0.594,3.705 2.531,5.425 5.807,5.16 0.593,2.552 5.619,4.952 7.511,3.497 0.965,-0.741 0.799,-5.001 0.913,-5.051 0.425,-0.19 2.146,7.748 2.463,0.616 0.007,-0.166 0.106,-0.219 0.136,-0.057 0.862,4.607 4.493,-0.368 4.059,3.769 4.214,-3.385 6.928,-3.061 9.36,-8.291 1.326,3.964 -5.813,6.523 -7.703,10.006 0.334,1.893 4.134,0.408 5.868,0.938 -7.001,-2.488 -0.667,-0.178 1.727,-3.349 -0.552,-2.115 -2.263,1.531 -4.212,0.776 1.65,-1.733 9.508,-4.413 11.051,-9.108 1.519,3.032 -4.968,5.11 -5.999,8.345 1.888,0.731 5.663,-0.891 7.618,-4.097 1.348,5.122 -6.495,8.105 -11.889,9.094 3.295,2.518 8.514,-2.849 12.61,-0.641 -5.442,3.384 -0.86,7.866 -10.358,4.676 2.343,-0.956 3.319,-1.476 5.893,-1.484 -4.743,-1.266 -11.827,0.123 -14.038,-1.802 0.13,3.759 4.202,3.403 5.962,5.571 10.089,-2.199 -4.378,4.371 -6.859,-1.362 -1.747,-2.096 0.863,1.273 2.507,0.883 -0.124,-3.21 -3.488,-3.258 -3.265,-6.805 -2.472,0.676 0.687,2.824 -0.059,4.22 -4.229,7.92 -4.047,22.223 -11.937,25.9 -0.096,0.045 -0.351,0.209 -0.469,0.116 -0.097,-0.079 -0.068,-0.398 -0.063,-0.548 0.078,-2.388 1.36,-6.41 4.226,-7.104 0.304,-0.071 0.741,-0.07 0.938,-0.063 3.564,-6.871 4.466,-10.742 5.648,-20.017 C 26.772,24.39 9.47,22.621 4.906,12.424 3.738,9.82 4.795,10.764 5.207,9.603 7.689,12.902 16.458,15.426 18.306,15.173 15.853,13.716 2.814,10.534 7.556,3.181"
   id="path318" />

</g>
    <g
       id="rot"
       display="none"
       transform="matrix(0.26458333,0,0,0.26458333,-1.1880752,-0.84137499)">
	<g
   display="inline"
   id="g359">
		<path
   fill="#a51848"
   d="m 55.503,24.404 c -1.619,0 -2.687,-0.876 -2.687,-2.436 v -6.236 h 1.067 v 6.104 c 0,1.067 0.624,1.679 1.619,1.679 1.019,0 1.667,-0.6 1.667,-1.655 v -6.128 h 1.055 v 6.081 c 0.001,1.607 -1.066,2.591 -2.721,2.591 z"
   id="path321" />

		<path
   fill="#a51848"
   d="m 64.85,24.38 c -0.815,0 -1.271,-0.601 -1.271,-1.655 V 19.87 c 0,-0.647 -0.312,-1.08 -0.887,-1.08 -0.612,0 -1.151,0.492 -1.523,1.092 v 4.401 H 60.15 v -6.152 l 0.875,-0.132 0.144,1.067 c 0.348,-0.6 0.84,-1.079 1.619,-1.079 1.056,0 1.811,0.671 1.811,1.835 v 2.891 c 0,0.467 0.072,0.875 0.468,0.875 0.204,0 0.384,-0.084 0.54,-0.168 l 0.3,0.695 c -0.266,0.168 -0.626,0.265 -1.057,0.265 z"
   id="path323" />

		<path
   fill="#a51848"
   d="m 68.463,24.367 c -0.936,0 -1.391,-0.635 -1.391,-1.631 V 18.839 H 66.16 v -0.756 h 0.923 l 0.36,-2.015 h 0.636 v 2.015 h 1.607 v 0.756 h -1.595 v 3.657 c 0,0.564 0.06,1.057 0.492,1.057 0.288,0 0.576,-0.181 0.864,-0.396 l 0.479,0.672 c -0.348,0.335 -0.9,0.538 -1.463,0.538 z"
   id="path325" />

		<path
   fill="#a51848"
   d="m 71.775,21.729 c 0.036,0.948 0.384,1.847 1.235,1.847 0.612,0 1.14,-0.229 1.595,-0.504 l 0.456,0.779 c -0.54,0.324 -1.259,0.516 -2.039,0.516 -1.667,0 -2.375,-1.427 -2.375,-3.262 0,-1.787 0.852,-3.106 2.375,-3.106 1.199,0 2.111,0.744 2.111,1.859 0.001,1.523 -1.834,1.787 -3.358,1.871 z m 1.248,-2.95 c -0.948,0 -1.224,1.115 -1.259,2.23 0.983,-0.108 2.291,-0.204 2.291,-1.151 -0.001,-0.624 -0.421,-1.079 -1.032,-1.079 z"
   id="path327" />

		<path
   fill="#a51848"
   d="m 79.778,19.066 c -0.096,-0.024 -0.204,-0.06 -0.324,-0.06 -0.648,0 -1.164,0.443 -1.523,1.031 v 4.245 h -0.995 v -6.236 l 0.779,-0.083 0.204,1.175 c 0.36,-0.612 0.887,-1.151 1.535,-1.151 0.251,0 0.492,0.036 0.708,0.096 z"
   id="path329" />

		<path
   fill="#a51848"
   d="m 82.311,24.392 c -0.732,0 -1.451,-0.228 -2.027,-0.684 l 0.468,-0.731 c 0.479,0.371 1.031,0.6 1.643,0.6 0.587,0 1.019,-0.24 1.019,-0.875 0,-0.612 -0.6,-0.84 -1.235,-1.128 -0.744,-0.336 -1.715,-0.768 -1.715,-1.955 0,-1.104 1.08,-1.631 1.991,-1.631 0.684,0 1.331,0.228 1.919,0.563 l -0.396,0.696 c -0.456,-0.252 -0.923,-0.468 -1.451,-0.468 -0.552,0 -0.959,0.288 -0.959,0.852 0,0.624 0.72,0.863 1.295,1.139 0.768,0.372 1.655,0.78 1.655,1.859 0,1.211 -1.14,1.763 -2.207,1.763 z"
   id="path331" />

		<path
   fill="#a51848"
   d="m 87.531,24.367 c -0.936,0 -1.391,-0.635 -1.391,-1.631 v -3.897 h -0.912 v -0.756 h 0.923 l 0.36,-2.015 h 0.636 v 2.015 h 1.607 v 0.756 h -1.595 v 3.657 c 0,0.564 0.06,1.057 0.492,1.057 0.288,0 0.576,-0.181 0.864,-0.396 l 0.479,0.672 c -0.348,0.335 -0.9,0.538 -1.463,0.538 z"
   id="path333" />

		<path
   fill="#a51848"
   d="m 94.501,24.38 c -0.528,0 -0.959,-0.252 -1.164,-0.876 -0.228,0.336 -0.779,0.888 -1.619,0.888 -1.14,0 -1.811,-0.72 -1.811,-1.883 v -4.426 h 1.019 v 4.426 c 0,0.72 0.396,1.056 0.912,1.056 0.624,0 1.188,-0.553 1.391,-0.972 v -4.51 h 1.02 v 4.63 c 0,0.479 0.072,0.875 0.468,0.875 0.228,0 0.396,-0.084 0.54,-0.168 l 0.3,0.695 c -0.241,0.156 -0.648,0.265 -1.056,0.265 z m -3.67,-7.892 c -0.42,0 -0.756,-0.335 -0.756,-0.755 0,-0.42 0.336,-0.756 0.756,-0.756 0.42,0 0.755,0.336 0.755,0.756 0,0.42 -0.335,0.755 -0.755,0.755 z m 2.506,0 c -0.419,0 -0.755,-0.335 -0.755,-0.755 0,-0.42 0.336,-0.756 0.755,-0.756 0.42,0 0.756,0.336 0.756,0.756 0,0.42 -0.336,0.755 -0.756,0.755 z"
   id="path335" />

		<path
   fill="#a51848"
   d="m 97.995,24.367 c -0.936,0 -1.391,-0.635 -1.391,-1.631 v -3.897 h -0.912 v -0.756 h 0.923 l 0.36,-2.015 h 0.636 v 2.015 h 1.607 v 0.756 h -1.595 v 3.657 c 0,0.564 0.06,1.057 0.492,1.057 0.288,0 0.576,-0.181 0.864,-0.396 l 0.479,0.672 c -0.348,0.335 -0.899,0.538 -1.463,0.538 z"
   id="path337" />

		<path
   fill="#a51848"
   d="m 100.12,24.283 c 0,-1.799 0.516,-2.326 1.655,-3.441 0.672,-0.648 1.379,-1.067 1.379,-1.895 h -2.902 v -0.864 h 3.838 c 0,1.559 -0.204,2.039 -1.451,3.238 -0.708,0.684 -1.56,1.235 -1.56,2.11 h 3.07 v 0.852 z"
   id="path339" />

		<path
   fill="#a51848"
   d="m 107.283,24.367 c -0.936,0 -1.391,-0.635 -1.391,-1.631 v -3.897 h -0.912 v -0.756 h 0.923 l 0.36,-2.015 h 0.636 v 2.015 h 1.607 v 0.756 h -1.595 v 3.657 c 0,0.564 0.06,1.057 0.492,1.057 0.288,0 0.576,-0.181 0.864,-0.396 l 0.479,0.672 c -0.348,0.335 -0.9,0.538 -1.463,0.538 z"
   id="path341" />

		<path
   fill="#a51848"
   d="m 117.722,24.38 c -0.601,0 -0.972,-0.312 -1.151,-0.827 -0.168,0.275 -0.588,0.863 -1.416,0.863 -1.559,0 -2.183,-1.416 -2.183,-3.179 0,-1.703 0.756,-3.214 2.231,-3.214 0.575,0 0.959,0.264 1.259,0.564 v -3.334 h 1.008 v 7.46 c 0,0.479 0.06,0.875 0.479,0.875 0.216,0 0.384,-0.084 0.527,-0.168 l 0.3,0.695 c -0.263,0.168 -0.659,0.265 -1.054,0.265 z m -1.26,-4.774 c -0.192,-0.42 -0.611,-0.768 -1.188,-0.768 -0.923,0 -1.199,1.175 -1.199,2.387 0,1.211 0.276,2.387 1.199,2.387 0.576,0 1.056,-0.636 1.188,-0.96 z"
   id="path343" />

		<path
   fill="#a51848"
   d="m 124.213,24.38 c -0.527,0 -0.959,-0.252 -1.163,-0.876 -0.229,0.336 -0.78,0.888 -1.619,0.888 -1.14,0 -1.812,-0.72 -1.812,-1.883 v -4.426 h 1.02 v 4.426 c 0,0.72 0.396,1.056 0.912,1.056 0.623,0 1.187,-0.553 1.391,-0.972 v -4.51 h 1.02 v 4.63 c 0,0.479 0.072,0.875 0.468,0.875 0.228,0 0.396,-0.084 0.54,-0.168 l 0.3,0.695 c -0.242,0.156 -0.649,0.265 -1.057,0.265 z"
   id="path345" />

		<path
   fill="#a51848"
   d="m 128.966,19.066 c -0.096,-0.024 -0.204,-0.06 -0.324,-0.06 -0.647,0 -1.163,0.443 -1.522,1.031 v 4.245 h -0.996 v -6.236 l 0.78,-0.083 0.203,1.175 c 0.36,-0.612 0.888,-1.151 1.535,-1.151 0.252,0 0.492,0.036 0.708,0.096 z"
   id="path347" />

		<path
   fill="#a51848"
   d="m 132.985,19.342 c -0.191,-0.324 -0.552,-0.54 -1.019,-0.54 -0.9,0 -1.151,1.199 -1.151,2.411 0,1.248 0.239,2.386 1.151,2.386 0.479,0 0.863,-0.228 1.151,-0.551 l 0.611,0.611 c -0.396,0.408 -0.983,0.731 -1.763,0.731 -1.56,0 -2.255,-1.308 -2.255,-3.178 0,-1.943 0.779,-3.214 2.255,-3.214 0.779,0 1.451,0.336 1.786,0.899 z"
   id="path349" />

		<path
   fill="#a51848"
   d="m 139.681,24.38 c -0.863,0 -1.271,-0.672 -1.271,-1.655 v -2.867 c 0,-0.731 -0.396,-1.067 -0.888,-1.067 -0.612,0 -1.164,0.516 -1.571,1.092 v 4.401 h -1.008 v -9.031 h 1.008 v 3.838 c 0.396,-0.635 0.947,-1.103 1.667,-1.103 1.104,0 1.811,0.695 1.811,1.835 v 2.891 c 0,0.455 0.061,0.875 0.468,0.875 0.181,0 0.349,-0.06 0.54,-0.168 l 0.3,0.695 c -0.276,0.167 -0.684,0.264 -1.056,0.264 z"
   id="path351" />

		<path
   fill="#a51848"
   d="m 149.772,24.38 c -0.6,0 -0.972,-0.312 -1.151,-0.827 -0.168,0.275 -0.588,0.863 -1.415,0.863 -1.56,0 -2.183,-1.416 -2.183,-3.179 0,-1.703 0.755,-3.214 2.23,-3.214 0.575,0 0.959,0.264 1.26,0.564 v -3.334 h 1.007 v 7.46 c 0,0.479 0.061,0.875 0.479,0.875 0.216,0 0.384,-0.084 0.528,-0.168 l 0.3,0.695 c -0.263,0.168 -0.659,0.265 -1.055,0.265 z m -1.258,-4.774 c -0.192,-0.42 -0.612,-0.768 -1.188,-0.768 -0.924,0 -1.199,1.175 -1.199,2.387 0,1.211 0.275,2.387 1.199,2.387 0.575,0 1.055,-0.636 1.188,-0.96 z"
   id="path353" />

		<path
   fill="#a51848"
   d="m 152.14,24.283 v -5.444 h -1.176 v -0.684 l 2.207,-0.144 v 6.272 z m 0.479,-7.795 c -0.42,0 -0.755,-0.335 -0.755,-0.755 0,-0.42 0.335,-0.756 0.755,-0.756 0.42,0 0.756,0.336 0.756,0.756 0,0.42 -0.336,0.755 -0.756,0.755 z"
   id="path355" />

		<path
   fill="#a51848"
   d="m 156.183,21.729 c 0.036,0.948 0.384,1.847 1.235,1.847 0.611,0 1.14,-0.229 1.595,-0.504 l 0.456,0.779 c -0.539,0.324 -1.259,0.516 -2.039,0.516 -1.667,0 -2.374,-1.427 -2.374,-3.262 0,-1.787 0.852,-3.106 2.374,-3.106 1.199,0 2.111,0.744 2.111,1.859 0,1.523 -1.835,1.787 -3.358,1.871 z m 1.247,-2.95 c -0.947,0 -1.223,1.115 -1.259,2.23 0.983,-0.108 2.291,-0.204 2.291,-1.151 0,-0.624 -0.42,-1.079 -1.032,-1.079 z"
   id="path357" />

	</g>

	<g
   display="inline"
   id="g365">
		<path
   fill="#a51848"
   d="m 54.436,38.684 h -1.619 v -8.552 h 1.619 c 2.782,0 4.125,1.812 4.125,4.318 0,2.374 -1.475,4.234 -4.125,4.234 z m 0,-7.688 h -0.552 v 6.788 h 0.552 c 1.955,0 2.974,-1.476 2.974,-3.334 0,-1.967 -1.02,-3.454 -2.974,-3.454 z"
   id="path361" />

		<path
   fill="#a51848"
   d="m 64.538,31.02 h -3.274 v 2.675 h 2.71 l -0.144,0.899 h -2.566 v 3.166 h 3.442 l -0.132,0.924 H 60.233 V 30.12 l 4.485,0.012 z"
   id="path363" />

	</g>

	<g
   display="inline"
   id="g369">
		<path
   fill="#a51848"
   d="m 69.075,38.804 c -1.619,0 -2.687,-0.876 -2.687,-2.435 v -6.237 h 1.067 v 6.105 c 0,1.067 0.624,1.679 1.619,1.679 1.019,0 1.667,-0.6 1.667,-1.655 v -6.129 h 1.055 v 6.081 c 10e-4,1.607 -1.067,2.591 -2.721,2.591 z"
   id="path367" />

	</g>

	<g
   display="inline"
   id="g401">
		<path
   fill="#a51848"
   d="m 78.686,31.056 h -2.315 v 7.628 h -1.079 v -7.628 h -2.303 v -0.924 h 5.781 z"
   id="path371" />

		<path
   fill="#a51848"
   d="m 84.242,31.703 c -0.563,-0.443 -1.199,-0.791 -1.895,-0.791 -0.731,0 -1.355,0.396 -1.355,1.199 0,0.863 0.779,1.283 1.499,1.739 1.127,0.707 2.219,1.235 2.219,2.698 0,1.379 -1.091,2.303 -2.542,2.303 -1.248,0 -2.039,-0.492 -2.687,-1.02 l 0.647,-0.84 c 0.516,0.432 1.175,0.972 2.099,0.972 0.78,0 1.355,-0.527 1.355,-1.283 0,-1.008 -0.923,-1.427 -1.823,-1.967 -0.924,-0.563 -1.895,-1.199 -1.895,-2.53 0,-1.392 1.211,-2.184 2.411,-2.184 1.02,0 1.907,0.396 2.579,0.924 z"
   id="path373" />

		<path
   fill="#a51848"
   d="m 91.262,31.812 c -0.384,-0.54 -0.924,-0.899 -1.691,-0.899 -1.415,0 -1.979,1.715 -1.979,3.598 0,1.847 0.564,3.454 2.027,3.454 0.78,0 1.235,-0.348 1.667,-0.707 l 0.708,0.707 c -0.516,0.492 -1.332,0.888 -2.375,0.888 -2.278,0 -3.202,-1.859 -3.202,-4.342 0,-2.614 1.127,-4.485 3.202,-4.485 1.116,0 1.931,0.504 2.471,1.188 z"
   id="path375" />

		<path
   fill="#a51848"
   d="m 98.257,38.684 v -4.078 h -3.802 v 4.078 H 93.4 V 30.12 h 1.067 v 3.622 h 3.79 V 30.12 H 99.3 v 8.563 h -1.043 z"
   id="path377" />

		<path
   fill="#a51848"
   d="m 105.77,31.02 h -3.274 v 2.675 h 2.71 l -0.144,0.899 h -2.566 v 3.166 h 3.442 l -0.132,0.924 h -4.341 V 30.12 l 4.485,0.012 z"
   id="path379" />

		<path
   fill="#a51848"
   d="m 112.911,38.684 h -1.619 v -8.552 h 1.619 c 2.782,0 4.126,1.812 4.126,4.318 0,2.374 -1.475,4.234 -4.126,4.234 z m 0,-7.688 h -0.552 v 6.788 h 0.552 c 1.954,0 2.974,-1.476 2.974,-3.334 0,-1.967 -1.02,-3.454 -2.974,-3.454 z"
   id="path381" />

		<path
   fill="#a51848"
   d="m 118.707,38.684 v -8.552 h 1.044 v 8.552 z"
   id="path383" />

		<path
   fill="#a51848"
   d="m 126.793,31.703 c -0.504,-0.504 -1.14,-0.839 -1.919,-0.839 -1.476,0 -2.027,1.619 -2.027,3.466 0,1.883 0.492,3.622 2.003,3.622 0.552,0 1.08,-0.061 1.512,-0.192 v -3.154 h -1.632 l 0.145,-0.839 h 2.494 v 4.401 c -0.611,0.384 -1.535,0.647 -2.519,0.647 -2.267,0 -3.178,-1.955 -3.178,-4.485 0,-2.519 1.127,-4.33 3.202,-4.33 1.139,0 1.99,0.408 2.639,1.067 z"
   id="path385" />

		<path
   fill="#a51848"
   d="m 129.495,38.684 v -8.552 h 1.044 v 8.552 z"
   id="path387" />

		<path
   fill="#a51848"
   d="m 137.437,31.056 h -2.314 v 7.628 h -1.079 v -7.628 h -2.303 v -0.924 h 5.78 z"
   id="path389" />

		<path
   fill="#a51848"
   d="m 143.4,38.684 -0.636,-2.362 h -3.166 l -0.696,2.362 h -1.139 l 2.771,-8.552 h 1.535 l 2.446,8.552 z m -1.991,-7.748 h -0.216 l -1.331,4.534 h 2.698 z"
   id="path391" />

		<path
   fill="#a51848"
   d="m 150.049,38.684 h -4.21 v -8.552 h 1.031 v 7.664 h 3.263 z"
   id="path393" />

		<path
   fill="#a51848"
   d="m 155.641,31.02 h -3.274 v 2.675 h 2.711 l -0.144,0.899 h -2.567 v 3.166 h 3.442 l -0.132,0.924 h -4.342 V 30.12 l 4.485,0.012 z"
   id="path395" />

		<path
   fill="#a51848"
   d="m 163.394,38.684 c 0,0 -1.535,0 -2.231,0 v -8.552 h 2.063 c 1.679,0 2.806,0.756 2.806,2.1 0,0.888 -0.563,1.499 -1.307,1.822 0.911,0.336 1.511,1.104 1.511,2.147 -10e-4,1.511 -1.152,2.483 -2.842,2.483 z m -0.168,-7.736 h -1.044 v 2.746 h 1.115 c 1.02,0 1.632,-0.552 1.632,-1.379 0,-0.935 -0.697,-1.367 -1.703,-1.367 z m 0.059,3.538 h -1.104 v 3.357 h 1.212 c 1.139,0 1.715,-0.671 1.715,-1.643 0,-0.995 -0.731,-1.714 -1.823,-1.714 z"
   id="path397" />

		<path
   fill="#a51848"
   d="m 167.798,38.684 v -8.552 h 1.044 v 8.552 z"
   id="path399" />

	</g>

	<g
   display="inline"
   id="g405">
		<path
   fill="#a51848"
   d="m 173.091,38.684 c 0,0 -1.535,0 -2.231,0 v -8.552 h 2.063 c 1.679,0 2.806,0.756 2.806,2.1 0,0.888 -0.563,1.499 -1.307,1.822 0.911,0.336 1.511,1.104 1.511,2.147 0,1.511 -1.152,2.483 -2.842,2.483 z m -0.168,-7.736 h -1.044 v 2.746 h 1.115 c 1.02,0 1.632,-0.552 1.632,-1.379 0,-0.935 -0.696,-1.367 -1.703,-1.367 z m 0.059,3.538 h -1.104 v 3.357 h 1.212 c 1.139,0 1.715,-0.671 1.715,-1.643 0.001,-0.995 -0.731,-1.714 -1.823,-1.714 z"
   id="path403" />

	</g>

	<g
   display="inline"
   id="g421">
		<path
   fill="#a51848"
   d="m 181.693,38.684 h -4.21 v -8.552 h 1.031 v 7.664 h 3.263 z"
   id="path407" />

		<path
   fill="#a51848"
   d="m 182.979,38.684 v -8.552 h 1.044 v 8.552 z"
   id="path409" />

		<path
   fill="#a51848"
   d="m 189.182,38.815 c -2.231,0 -3.238,-1.775 -3.238,-4.413 0,-2.519 1.031,-4.414 3.238,-4.414 2.242,0 3.226,1.979 3.226,4.401 -10e-4,2.46 -1.02,4.426 -3.226,4.426 z m 0,-8.023 c -1.464,0 -2.063,1.691 -2.063,3.61 0,2.038 0.576,3.622 2.063,3.622 1.511,0 2.051,-1.655 2.051,-3.622 -0.001,-1.919 -0.661,-3.61 -2.051,-3.61 z"
   id="path411" />

		<path
   fill="#a51848"
   d="m 199.068,31.056 h -2.314 v 7.628 h -1.079 v -7.628 h -2.303 v -0.924 h 5.78 z"
   id="path413" />

		<path
   fill="#a51848"
   d="m 205.08,38.684 v -4.078 h -3.802 v 4.078 h -1.056 V 30.12 h 1.067 v 3.622 h 3.79 V 30.12 h 1.044 v 8.563 h -1.043 z"
   id="path415" />

		<path
   fill="#a51848"
   d="m 212.593,31.02 h -3.274 v 2.675 h 2.711 l -0.144,0.899 h -2.567 v 3.166 h 3.442 l -0.132,0.924 h -4.342 V 30.12 l 4.485,0.012 z"
   id="path417" />

		<path
   fill="#a51848"
   d="m 218.953,38.684 -2.531,-3.994 h -0.887 v 3.994 h -1.08 v -8.552 h 1.067 v 3.622 h 0.864 l 2.614,-3.705 0.888,0.551 -2.65,3.563 3.034,4.521 z"
   id="path419" />

	</g>

	<g
   display="inline"
   id="g436">
		<defs
   id="defs424" />

		<clipPath
   id="SVGID_2_">
			<use
   xlink:href="#SVGID_1_"
   overflow="visible"
   id="use426"
   x="0"
   y="0"
   width="100%"
   height="100%" />

		</clipPath>

		
			<linearGradient
   id="SVGID_3_"
   gradientUnits="userSpaceOnUse"
   x1="0.12890001"
   y1="43.068401"
   x2="1.1289001"
   y2="43.068401"
   gradientTransform="matrix(43.4417,-7.6599,-7.6599,-43.4417,331.7331,1900.188)">
			<stop
   offset="0"
   style="stop-color:#A51848"
   id="stop429" />

			<stop
   offset="1"
   style="stop-color:#E41E3D"
   id="stop431" />

		</linearGradient>

		<polygon
   clip-path="url(#SVGID_2_)"
   fill="url(#SVGID_3_)"
   points="57.41,45.215 4.237,54.591 -4.597,4.487 48.576,-4.888 "
   id="polygon434"
   style="fill:url(#SVGID_3_)" />

	</g>

</g>
    <g
       id="grau"
       display="none"
       transform="matrix(0.26458333,0,0,0.26458333,-1.1880752,-0.84137499)">
	<g
   display="inline"
   id="g477">
		<path
   fill="#58585a"
   d="m 55.503,24.404 c -1.619,0 -2.687,-0.876 -2.687,-2.436 v -6.236 h 1.067 v 6.104 c 0,1.067 0.624,1.679 1.619,1.679 1.019,0 1.667,-0.6 1.667,-1.655 v -6.128 h 1.055 v 6.081 c 0.001,1.607 -1.066,2.591 -2.721,2.591 z"
   id="path439" />

		<path
   fill="#58585a"
   d="m 64.85,24.38 c -0.815,0 -1.271,-0.601 -1.271,-1.655 V 19.87 c 0,-0.647 -0.312,-1.08 -0.887,-1.08 -0.612,0 -1.151,0.492 -1.523,1.092 v 4.401 H 60.15 v -6.152 l 0.875,-0.132 0.144,1.067 c 0.348,-0.6 0.84,-1.079 1.619,-1.079 1.056,0 1.811,0.671 1.811,1.835 v 2.891 c 0,0.467 0.072,0.875 0.468,0.875 0.204,0 0.384,-0.084 0.54,-0.168 l 0.3,0.695 c -0.266,0.168 -0.626,0.265 -1.057,0.265 z"
   id="path441" />

		<path
   fill="#58585a"
   d="m 68.463,24.367 c -0.936,0 -1.391,-0.635 -1.391,-1.631 V 18.839 H 66.16 v -0.756 h 0.923 l 0.36,-2.015 h 0.636 v 2.015 h 1.607 v 0.756 h -1.595 v 3.657 c 0,0.564 0.06,1.057 0.492,1.057 0.288,0 0.576,-0.181 0.864,-0.396 l 0.479,0.672 c -0.348,0.335 -0.9,0.538 -1.463,0.538 z"
   id="path443" />

		<path
   fill="#58585a"
   d="m 71.775,21.729 c 0.036,0.948 0.384,1.847 1.235,1.847 0.612,0 1.14,-0.229 1.595,-0.504 l 0.456,0.779 c -0.54,0.324 -1.259,0.516 -2.039,0.516 -1.667,0 -2.375,-1.427 -2.375,-3.262 0,-1.787 0.852,-3.106 2.375,-3.106 1.199,0 2.111,0.744 2.111,1.859 0.001,1.523 -1.834,1.787 -3.358,1.871 z m 1.248,-2.95 c -0.948,0 -1.224,1.115 -1.259,2.23 0.983,-0.108 2.291,-0.204 2.291,-1.151 -0.001,-0.624 -0.421,-1.079 -1.032,-1.079 z"
   id="path445" />

		<path
   fill="#58585a"
   d="m 79.778,19.066 c -0.096,-0.024 -0.204,-0.06 -0.324,-0.06 -0.648,0 -1.164,0.443 -1.523,1.031 v 4.245 h -0.995 v -6.236 l 0.779,-0.083 0.204,1.175 c 0.36,-0.612 0.887,-1.151 1.535,-1.151 0.251,0 0.492,0.036 0.708,0.096 z"
   id="path447" />

		<path
   fill="#58585a"
   d="m 82.311,24.392 c -0.732,0 -1.451,-0.228 -2.027,-0.684 l 0.468,-0.731 c 0.479,0.371 1.031,0.6 1.643,0.6 0.587,0 1.019,-0.24 1.019,-0.875 0,-0.612 -0.6,-0.84 -1.235,-1.128 -0.744,-0.336 -1.715,-0.768 -1.715,-1.955 0,-1.104 1.08,-1.631 1.991,-1.631 0.684,0 1.331,0.228 1.919,0.563 l -0.396,0.696 c -0.456,-0.252 -0.923,-0.468 -1.451,-0.468 -0.552,0 -0.959,0.288 -0.959,0.852 0,0.624 0.72,0.863 1.295,1.139 0.768,0.372 1.655,0.78 1.655,1.859 0,1.211 -1.14,1.763 -2.207,1.763 z"
   id="path449" />

		<path
   fill="#58585a"
   d="m 87.531,24.367 c -0.936,0 -1.391,-0.635 -1.391,-1.631 v -3.897 h -0.912 v -0.756 h 0.923 l 0.36,-2.015 h 0.636 v 2.015 h 1.607 v 0.756 h -1.595 v 3.657 c 0,0.564 0.06,1.057 0.492,1.057 0.288,0 0.576,-0.181 0.864,-0.396 l 0.479,0.672 c -0.348,0.335 -0.9,0.538 -1.463,0.538 z"
   id="path451" />

		<path
   fill="#58585a"
   d="m 94.501,24.38 c -0.528,0 -0.959,-0.252 -1.164,-0.876 -0.228,0.336 -0.779,0.888 -1.619,0.888 -1.14,0 -1.811,-0.72 -1.811,-1.883 v -4.426 h 1.019 v 4.426 c 0,0.72 0.396,1.056 0.912,1.056 0.624,0 1.188,-0.553 1.391,-0.972 v -4.51 h 1.02 v 4.63 c 0,0.479 0.072,0.875 0.468,0.875 0.228,0 0.396,-0.084 0.54,-0.168 l 0.3,0.695 c -0.241,0.156 -0.648,0.265 -1.056,0.265 z m -3.67,-7.892 c -0.42,0 -0.756,-0.335 -0.756,-0.755 0,-0.42 0.336,-0.756 0.756,-0.756 0.42,0 0.755,0.336 0.755,0.756 0,0.42 -0.335,0.755 -0.755,0.755 z m 2.506,0 c -0.419,0 -0.755,-0.335 -0.755,-0.755 0,-0.42 0.336,-0.756 0.755,-0.756 0.42,0 0.756,0.336 0.756,0.756 0,0.42 -0.336,0.755 -0.756,0.755 z"
   id="path453" />

		<path
   fill="#58585a"
   d="m 97.995,24.367 c -0.936,0 -1.391,-0.635 -1.391,-1.631 v -3.897 h -0.912 v -0.756 h 0.923 l 0.36,-2.015 h 0.636 v 2.015 h 1.607 v 0.756 h -1.595 v 3.657 c 0,0.564 0.06,1.057 0.492,1.057 0.288,0 0.576,-0.181 0.864,-0.396 l 0.479,0.672 c -0.348,0.335 -0.899,0.538 -1.463,0.538 z"
   id="path455" />

		<path
   fill="#58585a"
   d="m 100.12,24.283 c 0,-1.799 0.516,-2.326 1.655,-3.441 0.672,-0.648 1.379,-1.067 1.379,-1.895 h -2.902 v -0.864 h 3.838 c 0,1.559 -0.204,2.039 -1.451,3.238 -0.708,0.684 -1.56,1.235 -1.56,2.11 h 3.07 v 0.852 z"
   id="path457" />

		<path
   fill="#58585a"
   d="m 107.283,24.367 c -0.936,0 -1.391,-0.635 -1.391,-1.631 v -3.897 h -0.912 v -0.756 h 0.923 l 0.36,-2.015 h 0.636 v 2.015 h 1.607 v 0.756 h -1.595 v 3.657 c 0,0.564 0.06,1.057 0.492,1.057 0.288,0 0.576,-0.181 0.864,-0.396 l 0.479,0.672 c -0.348,0.335 -0.9,0.538 -1.463,0.538 z"
   id="path459" />

		<path
   fill="#58585a"
   d="m 117.722,24.38 c -0.601,0 -0.972,-0.312 -1.151,-0.827 -0.168,0.275 -0.588,0.863 -1.416,0.863 -1.559,0 -2.183,-1.416 -2.183,-3.179 0,-1.703 0.756,-3.214 2.231,-3.214 0.575,0 0.959,0.264 1.259,0.564 v -3.334 h 1.008 v 7.46 c 0,0.479 0.06,0.875 0.479,0.875 0.216,0 0.384,-0.084 0.527,-0.168 l 0.3,0.695 c -0.263,0.168 -0.659,0.265 -1.054,0.265 z m -1.26,-4.774 c -0.192,-0.42 -0.611,-0.768 -1.188,-0.768 -0.923,0 -1.199,1.175 -1.199,2.387 0,1.211 0.276,2.387 1.199,2.387 0.576,0 1.056,-0.636 1.188,-0.96 z"
   id="path461" />

		<path
   fill="#58585a"
   d="m 124.213,24.38 c -0.527,0 -0.959,-0.252 -1.163,-0.876 -0.229,0.336 -0.78,0.888 -1.619,0.888 -1.14,0 -1.812,-0.72 -1.812,-1.883 v -4.426 h 1.02 v 4.426 c 0,0.72 0.396,1.056 0.912,1.056 0.623,0 1.187,-0.553 1.391,-0.972 v -4.51 h 1.02 v 4.63 c 0,0.479 0.072,0.875 0.468,0.875 0.228,0 0.396,-0.084 0.54,-0.168 l 0.3,0.695 c -0.242,0.156 -0.649,0.265 -1.057,0.265 z"
   id="path463" />

		<path
   fill="#58585a"
   d="m 128.966,19.066 c -0.096,-0.024 -0.204,-0.06 -0.324,-0.06 -0.647,0 -1.163,0.443 -1.522,1.031 v 4.245 h -0.996 v -6.236 l 0.78,-0.083 0.203,1.175 c 0.36,-0.612 0.888,-1.151 1.535,-1.151 0.252,0 0.492,0.036 0.708,0.096 z"
   id="path465" />

		<path
   fill="#58585a"
   d="m 132.985,19.342 c -0.191,-0.324 -0.552,-0.54 -1.019,-0.54 -0.9,0 -1.151,1.199 -1.151,2.411 0,1.248 0.239,2.386 1.151,2.386 0.479,0 0.863,-0.228 1.151,-0.551 l 0.611,0.611 c -0.396,0.408 -0.983,0.731 -1.763,0.731 -1.56,0 -2.255,-1.308 -2.255,-3.178 0,-1.943 0.779,-3.214 2.255,-3.214 0.779,0 1.451,0.336 1.786,0.899 z"
   id="path467" />

		<path
   fill="#58585a"
   d="m 139.681,24.38 c -0.863,0 -1.271,-0.672 -1.271,-1.655 v -2.867 c 0,-0.731 -0.396,-1.067 -0.888,-1.067 -0.612,0 -1.164,0.516 -1.571,1.092 v 4.401 h -1.008 v -9.031 h 1.008 v 3.838 c 0.396,-0.635 0.947,-1.103 1.667,-1.103 1.104,0 1.811,0.695 1.811,1.835 v 2.891 c 0,0.455 0.061,0.875 0.468,0.875 0.181,0 0.349,-0.06 0.54,-0.168 l 0.3,0.695 c -0.276,0.167 -0.684,0.264 -1.056,0.264 z"
   id="path469" />

		<path
   fill="#58585a"
   d="m 149.772,24.38 c -0.6,0 -0.972,-0.312 -1.151,-0.827 -0.168,0.275 -0.588,0.863 -1.415,0.863 -1.56,0 -2.183,-1.416 -2.183,-3.179 0,-1.703 0.755,-3.214 2.23,-3.214 0.575,0 0.959,0.264 1.26,0.564 v -3.334 h 1.007 v 7.46 c 0,0.479 0.061,0.875 0.479,0.875 0.216,0 0.384,-0.084 0.528,-0.168 l 0.3,0.695 c -0.263,0.168 -0.659,0.265 -1.055,0.265 z m -1.258,-4.774 c -0.192,-0.42 -0.612,-0.768 -1.188,-0.768 -0.924,0 -1.199,1.175 -1.199,2.387 0,1.211 0.275,2.387 1.199,2.387 0.575,0 1.055,-0.636 1.188,-0.96 z"
   id="path471" />

		<path
   fill="#58585a"
   d="m 152.14,24.283 v -5.444 h -1.176 v -0.684 l 2.207,-0.144 v 6.272 z m 0.479,-7.795 c -0.42,0 -0.755,-0.335 -0.755,-0.755 0,-0.42 0.335,-0.756 0.755,-0.756 0.42,0 0.756,0.336 0.756,0.756 0,0.42 -0.336,0.755 -0.756,0.755 z"
   id="path473" />

		<path
   fill="#58585a"
   d="m 156.183,21.729 c 0.036,0.948 0.384,1.847 1.235,1.847 0.611,0 1.14,-0.229 1.595,-0.504 l 0.456,0.779 c -0.539,0.324 -1.259,0.516 -2.039,0.516 -1.667,0 -2.374,-1.427 -2.374,-3.262 0,-1.787 0.852,-3.106 2.374,-3.106 1.199,0 2.111,0.744 2.111,1.859 0,1.523 -1.835,1.787 -3.358,1.871 z m 1.247,-2.95 c -0.947,0 -1.223,1.115 -1.259,2.23 0.983,-0.108 2.291,-0.204 2.291,-1.151 0,-0.624 -0.42,-1.079 -1.032,-1.079 z"
   id="path475" />

	</g>

	<g
   display="inline"
   id="g483">
		<path
   fill="#58585a"
   d="m 54.436,38.684 h -1.619 v -8.552 h 1.619 c 2.782,0 4.125,1.812 4.125,4.318 0,2.374 -1.475,4.234 -4.125,4.234 z m 0,-7.688 h -0.552 v 6.788 h 0.552 c 1.955,0 2.974,-1.476 2.974,-3.334 0,-1.967 -1.02,-3.454 -2.974,-3.454 z"
   id="path479" />

		<path
   fill="#58585a"
   d="m 64.538,31.02 h -3.274 v 2.675 h 2.71 l -0.144,0.899 h -2.566 v 3.166 h 3.442 l -0.132,0.924 H 60.233 V 30.12 l 4.485,0.012 z"
   id="path481" />

	</g>

	<g
   display="inline"
   id="g487">
		<path
   fill="#58585a"
   d="m 69.075,38.804 c -1.619,0 -2.687,-0.876 -2.687,-2.435 v -6.237 h 1.067 v 6.105 c 0,1.067 0.624,1.679 1.619,1.679 1.019,0 1.667,-0.6 1.667,-1.655 v -6.129 h 1.055 v 6.081 c 10e-4,1.607 -1.067,2.591 -2.721,2.591 z"
   id="path485" />

	</g>

	<g
   display="inline"
   id="g519">
		<path
   fill="#58585a"
   d="m 78.686,31.056 h -2.315 v 7.628 h -1.079 v -7.628 h -2.303 v -0.924 h 5.781 z"
   id="path489" />

		<path
   fill="#58585a"
   d="m 84.242,31.703 c -0.563,-0.443 -1.199,-0.791 -1.895,-0.791 -0.731,0 -1.355,0.396 -1.355,1.199 0,0.863 0.779,1.283 1.499,1.739 1.127,0.707 2.219,1.235 2.219,2.698 0,1.379 -1.091,2.303 -2.542,2.303 -1.248,0 -2.039,-0.492 -2.687,-1.02 l 0.647,-0.84 c 0.516,0.432 1.175,0.972 2.099,0.972 0.78,0 1.355,-0.527 1.355,-1.283 0,-1.008 -0.923,-1.427 -1.823,-1.967 -0.924,-0.563 -1.895,-1.199 -1.895,-2.53 0,-1.392 1.211,-2.184 2.411,-2.184 1.02,0 1.907,0.396 2.579,0.924 z"
   id="path491" />

		<path
   fill="#58585a"
   d="m 91.262,31.812 c -0.384,-0.54 -0.924,-0.899 -1.691,-0.899 -1.415,0 -1.979,1.715 -1.979,3.598 0,1.847 0.564,3.454 2.027,3.454 0.78,0 1.235,-0.348 1.667,-0.707 l 0.708,0.707 c -0.516,0.492 -1.332,0.888 -2.375,0.888 -2.278,0 -3.202,-1.859 -3.202,-4.342 0,-2.614 1.127,-4.485 3.202,-4.485 1.116,0 1.931,0.504 2.471,1.188 z"
   id="path493" />

		<path
   fill="#58585a"
   d="m 98.257,38.684 v -4.078 h -3.802 v 4.078 H 93.4 V 30.12 h 1.067 v 3.622 h 3.79 V 30.12 H 99.3 v 8.563 h -1.043 z"
   id="path495" />

		<path
   fill="#58585a"
   d="m 105.77,31.02 h -3.274 v 2.675 h 2.71 l -0.144,0.899 h -2.566 v 3.166 h 3.442 l -0.132,0.924 h -4.341 V 30.12 l 4.485,0.012 z"
   id="path497" />

		<path
   fill="#58585a"
   d="m 112.911,38.684 h -1.619 v -8.552 h 1.619 c 2.782,0 4.126,1.812 4.126,4.318 0,2.374 -1.475,4.234 -4.126,4.234 z m 0,-7.688 h -0.552 v 6.788 h 0.552 c 1.954,0 2.974,-1.476 2.974,-3.334 0,-1.967 -1.02,-3.454 -2.974,-3.454 z"
   id="path499" />

		<path
   fill="#58585a"
   d="m 118.707,38.684 v -8.552 h 1.044 v 8.552 z"
   id="path501" />

		<path
   fill="#58585a"
   d="m 126.793,31.703 c -0.504,-0.504 -1.14,-0.839 -1.919,-0.839 -1.476,0 -2.027,1.619 -2.027,3.466 0,1.883 0.492,3.622 2.003,3.622 0.552,0 1.08,-0.061 1.512,-0.192 v -3.154 h -1.632 l 0.145,-0.839 h 2.494 v 4.401 c -0.611,0.384 -1.535,0.647 -2.519,0.647 -2.267,0 -3.178,-1.955 -3.178,-4.485 0,-2.519 1.127,-4.33 3.202,-4.33 1.139,0 1.99,0.408 2.639,1.067 z"
   id="path503" />

		<path
   fill="#58585a"
   d="m 129.495,38.684 v -8.552 h 1.044 v 8.552 z"
   id="path505" />

		<path
   fill="#58585a"
   d="m 137.437,31.056 h -2.314 v 7.628 h -1.079 v -7.628 h -2.303 v -0.924 h 5.78 z"
   id="path507" />

		<path
   fill="#58585a"
   d="m 143.4,38.684 -0.636,-2.362 h -3.166 l -0.696,2.362 h -1.139 l 2.771,-8.552 h 1.535 l 2.446,8.552 z m -1.991,-7.748 h -0.216 l -1.331,4.534 h 2.698 z"
   id="path509" />

		<path
   fill="#58585a"
   d="m 150.049,38.684 h -4.21 v -8.552 h 1.031 v 7.664 h 3.263 z"
   id="path511" />

		<path
   fill="#58585a"
   d="m 155.641,31.02 h -3.274 v 2.675 h 2.711 l -0.144,0.899 h -2.567 v 3.166 h 3.442 l -0.132,0.924 h -4.342 V 30.12 l 4.485,0.012 z"
   id="path513" />

		<path
   fill="#58585a"
   d="m 163.394,38.684 c 0,0 -1.535,0 -2.231,0 v -8.552 h 2.063 c 1.679,0 2.806,0.756 2.806,2.1 0,0.888 -0.563,1.499 -1.307,1.822 0.911,0.336 1.511,1.104 1.511,2.147 -10e-4,1.511 -1.152,2.483 -2.842,2.483 z m -0.168,-7.736 h -1.044 v 2.746 h 1.115 c 1.02,0 1.632,-0.552 1.632,-1.379 0,-0.935 -0.697,-1.367 -1.703,-1.367 z m 0.059,3.538 h -1.104 v 3.357 h 1.212 c 1.139,0 1.715,-0.671 1.715,-1.643 0,-0.995 -0.731,-1.714 -1.823,-1.714 z"
   id="path515" />

		<path
   fill="#58585a"
   d="m 167.798,38.684 v -8.552 h 1.044 v 8.552 z"
   id="path517" />

	</g>

	<g
   display="inline"
   id="g523">
		<path
   fill="#58585a"
   d="m 173.091,38.684 c 0,0 -1.535,0 -2.231,0 v -8.552 h 2.063 c 1.679,0 2.806,0.756 2.806,2.1 0,0.888 -0.563,1.499 -1.307,1.822 0.911,0.336 1.511,1.104 1.511,2.147 0,1.511 -1.152,2.483 -2.842,2.483 z m -0.168,-7.736 h -1.044 v 2.746 h 1.115 c 1.02,0 1.632,-0.552 1.632,-1.379 0,-0.935 -0.696,-1.367 -1.703,-1.367 z m 0.059,3.538 h -1.104 v 3.357 h 1.212 c 1.139,0 1.715,-0.671 1.715,-1.643 0.001,-0.995 -0.731,-1.714 -1.823,-1.714 z"
   id="path521" />

	</g>

	<g
   display="inline"
   id="g539">
		<path
   fill="#58585a"
   d="m 181.693,38.684 h -4.21 v -8.552 h 1.031 v 7.664 h 3.263 z"
   id="path525" />

		<path
   fill="#58585a"
   d="m 182.979,38.684 v -8.552 h 1.044 v 8.552 z"
   id="path527" />

		<path
   fill="#58585a"
   d="m 189.182,38.815 c -2.231,0 -3.238,-1.775 -3.238,-4.413 0,-2.519 1.031,-4.414 3.238,-4.414 2.242,0 3.226,1.979 3.226,4.401 -10e-4,2.46 -1.02,4.426 -3.226,4.426 z m 0,-8.023 c -1.464,0 -2.063,1.691 -2.063,3.61 0,2.038 0.576,3.622 2.063,3.622 1.511,0 2.051,-1.655 2.051,-3.622 -0.001,-1.919 -0.661,-3.61 -2.051,-3.61 z"
   id="path529" />

		<path
   fill="#58585a"
   d="m 199.068,31.056 h -2.314 v 7.628 h -1.079 v -7.628 h -2.303 v -0.924 h 5.78 z"
   id="path531" />

		<path
   fill="#58585a"
   d="m 205.08,38.684 v -4.078 h -3.802 v 4.078 h -1.056 V 30.12 h 1.067 v 3.622 h 3.79 V 30.12 h 1.044 v 8.563 h -1.043 z"
   id="path533" />

		<path
   fill="#58585a"
   d="m 212.593,31.02 h -3.274 v 2.675 h 2.711 l -0.144,0.899 h -2.567 v 3.166 h 3.442 l -0.132,0.924 h -4.342 V 30.12 l 4.485,0.012 z"
   id="path535" />

		<path
   fill="#58585a"
   d="m 218.953,38.684 -2.531,-3.994 h -0.887 v 3.994 h -1.08 v -8.552 h 1.067 v 3.622 h 0.864 l 2.614,-3.705 0.888,0.551 -2.65,3.563 3.034,4.521 z"
   id="path537" />

	</g>

	<g
   display="inline"
   id="g554">
		<defs
   id="defs542" />

		<clipPath
   id="SVGID_5_">
			<use
   xlink:href="#SVGID_4_"
   overflow="visible"
   id="use544"
   x="0"
   y="0"
   width="100%"
   height="100%" />

		</clipPath>

		
			<linearGradient
   id="SVGID_6_"
   gradientUnits="userSpaceOnUse"
   x1="0.12890001"
   y1="43.068401"
   x2="1.1289001"
   y2="43.068401"
   gradientTransform="matrix(43.4417,-7.6599,-7.6599,-43.4417,331.7331,1900.188)">
			<stop
   offset="0"
   style="stop-color:#58585A"
   id="stop547" />

			<stop
   offset="1"
   style="stop-color:#9C9E9F"
   id="stop549" />

		</linearGradient>

		<polygon
   clip-path="url(#SVGID_5_)"
   fill="url(#SVGID_6_)"
   points="57.41,45.215 4.237,54.591 -4.597,4.487 48.576,-4.888 "
   id="polygon552"
   style="fill:url(#SVGID_6_)" />

	</g>

</g>
    <path
       fill="#ffffff"
       d="M 0.84207269,0 C 1.2585269,0.00608542 1.5024727,0.45746458 1.5024727,0.45746458 1.6596352,1.4377458 2.1721331,1.8928291 3.0389081,1.8227146 3.195806,2.4979312 4.5256018,3.1329312 5.0261935,2.7479625 5.2815164,2.5519062 5.2375956,1.4247812 5.2677581,1.4115521 5.380206,1.3612812 5.8355539,3.4615437 5.9194268,1.5745354 5.9212789,1.5306146 5.9474726,1.5165916 5.9554101,1.5594541 6.183481,2.7783895 7.144183,1.4620875 7.0293539,2.5566687 8.144308,1.6610541 8.8623872,1.7467791 9.5058538,0.36300833 9.8566913,1.4118166 7.9678309,2.0888854 7.4677684,3.0104291 7.5561393,3.5112854 8.5615559,3.1183791 9.0203434,3.2586083 7.1679955,2.600325 8.8438663,3.2115125 9.4772788,2.3725187 9.3312288,1.812925 8.8785268,2.7775958 8.3628538,2.5778354 8.7994163,2.1193125 10.878512,1.4102291 11.286764,0.16801041 11.688666,0.97022707 9.9723142,1.5200312 9.6995288,2.3759583 10.199062,2.5693687 11.197864,2.1402146 11.715125,1.2919604 12.071783,2.6471562 9.9966559,3.4364083 8.5694934,3.6980812 9.4412955,4.364302 10.822156,2.9442833 11.905889,3.5284833 10.466027,4.4238333 11.678348,5.6099603 9.1653351,4.7656749 9.7852538,4.5127333 10.043487,4.3751499 10.724525,4.3730333 9.4696059,4.0380708 7.5952976,4.405577 7.0103039,3.8962541 7.0446997,4.8908229 8.122083,4.7966312 8.5877497,5.3699833 11.257131,4.7884291 7.4294039,6.526477 6.7729726,5.0096208 6.3107455,4.4553187 7.001308,5.3466999 7.436283,5.2432479 7.4034747,4.3939354 6.5134164,4.3812354 6.5724185,3.4427583 c -0.65405,0.1788583 0.1817687,0.7471833 -0.015611,1.1165416 -1.1189229,2.0955 -1.0707687,5.8798351 -3.1583312,6.8527081 -0.0254,0.01191 -0.092869,0.0553 -0.1240896,0.03043 -0.025664,-0.02064 -0.017992,-0.105039 -0.016669,-0.144991 C 3.278356,10.665883 3.6175518,9.6014645 4.3758476,9.4181082 4.456281,9.3990582 4.5719039,9.3993228 4.6240268,9.4014395 5.5670018,7.5834874 5.805656,6.5592853 6.1183935,4.1052749 5.926306,5.6110187 1.3484852,5.1432354 0.14092687,2.4452791 -0.16810646,1.7563041 0.11155812,2.0060708 0.22056645,1.6988896 0.87726227,2.57175 3.1973935,3.2395583 3.6863435,3.1726187 3.0373206,2.7873854 -0.41258146,1.9454812 0.84207269,0"
       id="path659"
       style="stroke-width:0.264583" />
  </g>
</svg>
